<svg style="max-height: 500px" id="visual" viewBox="0 451.11602434077076 1199.5951367781156 150.07055993207226" xmlns="http://www.w3.org/2000/svg" xmlns:xlink="http://www.w3.org/1999/xlink" version="1.1" width="1199.5951367781156" height="150.07055993207226"><path d="M0 459L120 465L240 490L360 457L480 454L600 490L720 480L840 461L960 488L1080 484L1200 482L1200 601L1080 601L960 601L840 601L720 601L600 601L480 601L360 601L240 601L120 601L0 601Z" fill="#94bcb1"/><path d="M0 489L120 499L240 474L360 503L480 515L600 482L720 497L840 482L960 523L1080 496L1200 493L1200 601L1080 601L960 601L840 601L720 601L600 601L480 601L360 601L240 601L120 601L0 601Z" fill="#73a09f"/><path d="M0 532L120 501L240 508L360 525L480 504L600 512L720 526L840 537L960 499L1080 526L1200 523L1200 601L1080 601L960 601L840 601L720 601L600 601L480 601L360 601L240 601L120 601L0 601Z" fill="#59838d"/><path d="M0 543L120 554L240 522L360 521L480 533L600 550L720 525L840 552L960 523L1080 548L1200 517L1200 601L1080 601L960 601L840 601L720 601L600 601L480 601L360 601L240 601L120 601L0 601Z" fill="#456779"/><path d="M0 554L120 558L240 559L360 567L480 539L600 553L720 568L840 552L960 563L1080 568L1200 551L1200 601L1080 601L960 601L840 601L720 601L600 601L480 601L360 601L240 601L120 601L0 601Z" fill="#374b61"/><path d="M0 582L120 579L240 566L360 565L480 581L600 579L720 586L840 571L960 581L1080 566L1200 572L1200 601L1080 601L960 601L840 601L720 601L600 601L480 601L360 601L240 601L120 601L0 601Z" fill="#2d3047"/></svg>