<svg id="visual" viewBox="0 0 900 1200" width="900" height="1200" xmlns="http://www.w3.org/2000/svg" xmlns:xlink="http://www.w3.org/1999/xlink" version="1.1"><rect x="0" y="0" width="900" height="1200" fill="#2D3047"></rect><path d="M0 1050L60 1050L60 1076L120 1076L120 980L180 980L180 957L240 957L240 1098L300 1098L300 959L360 959L360 927L420 927L420 901L480 901L480 1030L540 1030L540 906L600 906L600 915L660 915L660 1084L720 1084L720 1052L780 1052L780 946L840 946L840 1096L900 1096L900 1117L900 1201L900 1201L840 1201L840 1201L780 1201L780 1201L720 1201L720 1201L660 1201L660 1201L600 1201L600 1201L540 1201L540 1201L480 1201L480 1201L420 1201L420 1201L360 1201L360 1201L300 1201L300 1201L240 1201L240 1201L180 1201L180 1201L120 1201L120 1201L60 1201L60 1201L0 1201Z" fill="#94bcb1"></path><path d="M0 1131L60 1131L60 1165L120 1165L120 1049L180 1049L180 1113L240 1113L240 1070L300 1070L300 1005L360 1005L360 1025L420 1025L420 1127L480 1127L480 1074L540 1074L540 1040L600 1040L600 986L660 986L660 1119L720 1119L720 1155L780 1155L780 1172L840 1172L840 1130L900 1130L900 1038L900 1201L900 1201L840 1201L840 1201L780 1201L780 1201L720 1201L720 1201L660 1201L660 1201L600 1201L600 1201L540 1201L540 1201L480 1201L480 1201L420 1201L420 1201L360 1201L360 1201L300 1201L300 1201L240 1201L240 1201L180 1201L180 1201L120 1201L120 1201L60 1201L60 1201L0 1201Z" fill="#efeeec"></path></svg>