<svg id="visual" viewBox="0 0 960 540" width="960" height="540" xmlns="http://www.w3.org/2000/svg" xmlns:xlink="http://www.w3.org/1999/xlink" version="1.1"><rect x="0" y="0" width="960" height="540" fill="#2D3047"></rect><defs><linearGradient id="grad1_0" x1="43.8%" y1="0%" x2="100%" y2="100%"><stop offset="14.444444444444446%" stop-color="#94bcb1" stop-opacity="1"></stop><stop offset="85.55555555555554%" stop-color="#94bcb1" stop-opacity="1"></stop></linearGradient></defs><defs><linearGradient id="grad1_1" x1="43.8%" y1="0%" x2="100%" y2="100%"><stop offset="14.444444444444446%" stop-color="#94bcb1" stop-opacity="1"></stop><stop offset="85.55555555555554%" stop-color="#6c989b" stop-opacity="1"></stop></linearGradient></defs><defs><linearGradient id="grad1_2" x1="43.8%" y1="0%" x2="100%" y2="100%"><stop offset="14.444444444444446%" stop-color="#4e7583" stop-opacity="1"></stop><stop offset="85.55555555555554%" stop-color="#6c989b" stop-opacity="1"></stop></linearGradient></defs><defs><linearGradient id="grad1_3" x1="43.8%" y1="0%" x2="100%" y2="100%"><stop offset="14.444444444444446%" stop-color="#4e7583" stop-opacity="1"></stop><stop offset="85.55555555555554%" stop-color="#3a5267" stop-opacity="1"></stop></linearGradient></defs><defs><linearGradient id="grad1_4" x1="43.8%" y1="0%" x2="100%" y2="100%"><stop offset="14.444444444444446%" stop-color="#2d3047" stop-opacity="1"></stop><stop offset="85.55555555555554%" stop-color="#3a5267" stop-opacity="1"></stop></linearGradient></defs><defs><linearGradient id="grad2_0" x1="0%" y1="0%" x2="56.3%" y2="100%"><stop offset="14.444444444444446%" stop-color="#94bcb1" stop-opacity="1"></stop><stop offset="85.55555555555554%" stop-color="#94bcb1" stop-opacity="1"></stop></linearGradient></defs><defs><linearGradient id="grad2_1" x1="0%" y1="0%" x2="56.3%" y2="100%"><stop offset="14.444444444444446%" stop-color="#6c989b" stop-opacity="1"></stop><stop offset="85.55555555555554%" stop-color="#94bcb1" stop-opacity="1"></stop></linearGradient></defs><defs><linearGradient id="grad2_2" x1="0%" y1="0%" x2="56.3%" y2="100%"><stop offset="14.444444444444446%" stop-color="#6c989b" stop-opacity="1"></stop><stop offset="85.55555555555554%" stop-color="#4e7583" stop-opacity="1"></stop></linearGradient></defs><defs><linearGradient id="grad2_3" x1="0%" y1="0%" x2="56.3%" y2="100%"><stop offset="14.444444444444446%" stop-color="#3a5267" stop-opacity="1"></stop><stop offset="85.55555555555554%" stop-color="#4e7583" stop-opacity="1"></stop></linearGradient></defs><defs><linearGradient id="grad2_4" x1="0%" y1="0%" x2="56.3%" y2="100%"><stop offset="14.444444444444446%" stop-color="#3a5267" stop-opacity="1"></stop><stop offset="85.55555555555554%" stop-color="#2d3047" stop-opacity="1"></stop></linearGradient></defs><g transform="translate(960, 0)"><path d="M0 432C-41.2 412.4 -82.4 392.8 -123 378.5C-163.5 364.3 -203.4 355.3 -245.1 337.4C-286.8 319.4 -330.2 292.4 -349.5 253.9C-368.8 215.5 -364 165.7 -373.8 121.4C-383.5 77.2 -407.7 38.6 -432 0L0 0Z" fill="#334058"></path><path d="M0 345.6C-33 329.9 -65.9 314.2 -98.4 302.8C-130.8 291.4 -162.8 284.3 -196.1 269.9C-229.4 255.5 -264.1 233.9 -279.6 203.1C-295 172.4 -291.2 132.5 -299 97.2C-306.8 61.8 -326.2 30.9 -345.6 0L0 0Z" fill="#436376"></path><path d="M0 259.2C-24.7 247.4 -49.5 235.7 -73.8 227.1C-98.1 218.6 -122.1 213.2 -147.1 202.4C-172.1 191.6 -198.1 175.4 -209.7 152.4C-221.3 129.3 -218.4 99.4 -224.3 72.9C-230.1 46.3 -244.6 23.2 -259.2 0L0 0Z" fill="#5c8790"></path><path d="M0 172.8C-16.5 165 -33 157.1 -49.2 151.4C-65.4 145.7 -81.4 142.1 -98 134.9C-114.7 127.8 -132.1 116.9 -139.8 101.6C-147.5 86.2 -145.6 66.3 -149.5 48.6C-153.4 30.9 -163.1 15.4 -172.8 0L0 0Z" fill="#7faaa6"></path><path d="M0 86.4C-8.2 82.5 -16.5 78.6 -24.6 75.7C-32.7 72.9 -40.7 71.1 -49 67.5C-57.4 63.9 -66 58.5 -69.9 50.8C-73.8 43.1 -72.8 33.1 -74.8 24.3C-76.7 15.4 -81.5 7.7 -86.4 0L0 0Z" fill="#94bcb1"></path></g><g transform="translate(0, 540)"><path d="M0 -432C36.1 -399.2 72.2 -366.4 115.6 -355.7C158.9 -345 209.4 -356.3 248 -341.4C286.7 -326.5 313.4 -285.5 340.6 -247.5C367.8 -209.4 395.5 -174.2 410.9 -133.5C426.2 -92.7 429.1 -46.4 432 0L0 0Z" fill="#334058"></path><path d="M0 -345.6C28.9 -319.4 57.8 -293.1 92.5 -284.6C127.1 -276 167.5 -285 198.4 -273.1C229.3 -261.2 250.7 -228.4 272.5 -198C294.3 -167.5 316.4 -139.4 328.7 -106.8C340.9 -74.2 343.3 -37.1 345.6 0L0 0Z" fill="#436376"></path><path d="M0 -259.2C21.7 -239.5 43.3 -219.9 69.3 -213.4C95.3 -207 125.7 -213.8 148.8 -204.8C172 -195.9 188 -171.3 204.4 -148.5C220.7 -125.6 237.3 -104.5 246.5 -80.1C255.7 -55.6 257.5 -27.8 259.2 0L0 0Z" fill="#5c8790"></path><path d="M0 -172.8C14.4 -159.7 28.9 -146.6 46.2 -142.3C63.6 -138 83.8 -142.5 99.2 -136.6C114.7 -130.6 125.4 -114.2 136.2 -99C147.1 -83.8 158.2 -69.7 164.3 -53.4C170.5 -37.1 171.6 -18.5 172.8 0L0 0Z" fill="#7faaa6"></path><path d="M0 -86.4C7.2 -79.8 14.4 -73.3 23.1 -71.1C31.8 -69 41.9 -71.3 49.6 -68.3C57.3 -65.3 62.7 -57.1 68.1 -49.5C73.6 -41.9 79.1 -34.8 82.2 -26.7C85.2 -18.5 85.8 -9.3 86.4 0L0 0Z" fill="#94bcb1"></path></g></svg>