<svg id="visual" viewBox="0 0 1600 350" width="1600" height="350" xmlns="http://www.w3.org/2000/svg" xmlns:xlink="http://www.w3.org/1999/xlink" version="1.1"><rect x="0" y="0" width="1600" height="350" fill="#2D3047"></rect><defs><linearGradient id="grad1_0" x1="78.1%" y1="100%" x2="100%" y2="0%"><stop offset="-41.42857142857143%" stop-color="#94bcb1" stop-opacity="1"></stop><stop offset="141.42857142857142%" stop-color="#94bcb1" stop-opacity="1"></stop></linearGradient></defs><defs><linearGradient id="grad1_1" x1="78.1%" y1="100%" x2="100%" y2="0%"><stop offset="-41.42857142857143%" stop-color="#94bcb1" stop-opacity="1"></stop><stop offset="141.42857142857142%" stop-color="#6c989b" stop-opacity="1"></stop></linearGradient></defs><defs><linearGradient id="grad1_2" x1="78.1%" y1="100%" x2="100%" y2="0%"><stop offset="-41.42857142857143%" stop-color="#4e7583" stop-opacity="1"></stop><stop offset="141.42857142857142%" stop-color="#6c989b" stop-opacity="1"></stop></linearGradient></defs><defs><linearGradient id="grad1_3" x1="78.1%" y1="100%" x2="100%" y2="0%"><stop offset="-41.42857142857143%" stop-color="#4e7583" stop-opacity="1"></stop><stop offset="141.42857142857142%" stop-color="#3a5267" stop-opacity="1"></stop></linearGradient></defs><defs><linearGradient id="grad1_4" x1="78.1%" y1="100%" x2="100%" y2="0%"><stop offset="-41.42857142857143%" stop-color="#2d3047" stop-opacity="1"></stop><stop offset="141.42857142857142%" stop-color="#3a5267" stop-opacity="1"></stop></linearGradient></defs><defs><linearGradient id="grad2_0" x1="0%" y1="100%" x2="21.9%" y2="0%"><stop offset="-41.42857142857143%" stop-color="#94bcb1" stop-opacity="1"></stop><stop offset="141.42857142857142%" stop-color="#94bcb1" stop-opacity="1"></stop></linearGradient></defs><defs><linearGradient id="grad2_1" x1="0%" y1="100%" x2="21.9%" y2="0%"><stop offset="-41.42857142857143%" stop-color="#6c989b" stop-opacity="1"></stop><stop offset="141.42857142857142%" stop-color="#94bcb1" stop-opacity="1"></stop></linearGradient></defs><defs><linearGradient id="grad2_2" x1="0%" y1="100%" x2="21.9%" y2="0%"><stop offset="-41.42857142857143%" stop-color="#6c989b" stop-opacity="1"></stop><stop offset="141.42857142857142%" stop-color="#4e7583" stop-opacity="1"></stop></linearGradient></defs><defs><linearGradient id="grad2_3" x1="0%" y1="100%" x2="21.9%" y2="0%"><stop offset="-41.42857142857143%" stop-color="#3a5267" stop-opacity="1"></stop><stop offset="141.42857142857142%" stop-color="#4e7583" stop-opacity="1"></stop></linearGradient></defs><defs><linearGradient id="grad2_4" x1="0%" y1="100%" x2="21.9%" y2="0%"><stop offset="-41.42857142857143%" stop-color="#3a5267" stop-opacity="1"></stop><stop offset="141.42857142857142%" stop-color="#2d3047" stop-opacity="1"></stop></linearGradient></defs><g transform="translate(1600, 350)"><path d="M-332.5 0C-311.5 -29.9 -290.5 -59.8 -276.8 -89.9C-263 -120 -256.6 -150.4 -241.1 -175.2C-225.5 -199.9 -200.9 -219.2 -177.5 -244.3C-154.2 -269.5 -132.1 -300.5 -102.7 -316.2C-73.4 -331.9 -36.7 -332.2 0 -332.5L0 0Z" fill="#334058"></path><path d="M-266 0C-249.2 -23.9 -232.4 -47.8 -221.4 -71.9C-210.4 -96 -205.3 -120.3 -192.9 -140.1C-180.4 -160 -160.7 -175.3 -142 -195.5C-123.3 -215.6 -105.7 -240.4 -82.2 -253C-58.7 -265.5 -29.4 -265.8 0 -266L0 0Z" fill="#436376"></path><path d="M-199.5 0C-186.9 -17.9 -174.3 -35.9 -166.1 -54C-157.8 -72 -154 -90.2 -144.7 -105.1C-135.3 -120 -120.5 -131.5 -106.5 -146.6C-92.5 -161.7 -79.3 -180.3 -61.6 -189.7C-44 -199.1 -22 -199.3 0 -199.5L0 0Z" fill="#5c8790"></path><path d="M-133 0C-124.6 -12 -116.2 -23.9 -110.7 -36C-105.2 -48 -102.7 -60.2 -96.4 -70.1C-90.2 -80 -80.3 -87.7 -71 -97.7C-61.7 -107.8 -52.8 -120.2 -41.1 -126.5C-29.4 -132.8 -14.7 -132.9 0 -133L0 0Z" fill="#7faaa6"></path><path d="M-66.5 0C-62.3 -6 -58.1 -12 -55.4 -18C-52.6 -24 -51.3 -30.1 -48.2 -35C-45.1 -40 -40.2 -43.8 -35.5 -48.9C-30.8 -53.9 -26.4 -60.1 -20.5 -63.2C-14.7 -66.4 -7.3 -66.4 0 -66.5L0 0Z" fill="#94bcb1"></path></g><g transform="translate(0, 0)"><path d="M332.5 0C312.9 31.8 293.3 63.6 275.8 89.6C258.3 115.7 242.9 136 233 169.3C223.1 202.6 218.8 248.9 195.4 269C172.1 289.1 129.7 282.9 93.9 289.1C58.2 295.3 29.1 313.9 0 332.5L0 0Z" fill="#334058"></path><path d="M266 0C250.3 25.4 234.7 50.9 220.6 71.7C206.6 92.5 194.3 108.8 186.4 135.4C178.5 162.1 175 199.1 156.4 215.2C137.7 231.3 103.7 226.3 75.2 231.3C46.6 236.3 23.3 251.1 0 266L0 0Z" fill="#436376"></path><path d="M199.5 0C187.7 19.1 176 38.1 165.5 53.8C155 69.4 145.7 81.6 139.8 101.6C133.9 121.6 131.3 149.4 117.3 161.4C103.2 173.4 77.8 169.7 56.4 173.5C34.9 177.2 17.5 188.3 0 199.5L0 0Z" fill="#5c8790"></path><path d="M133 0C125.2 12.7 117.3 25.4 110.3 35.8C103.3 46.3 97.1 54.4 93.2 67.7C89.2 81 87.5 99.6 78.2 107.6C68.8 115.6 51.9 113.2 37.6 115.6C23.3 118.1 11.6 125.6 0 133L0 0Z" fill="#7faaa6"></path><path d="M66.5 0C62.6 6.4 58.7 12.7 55.2 17.9C51.7 23.1 48.6 27.2 46.6 33.9C44.6 40.5 43.8 49.8 39.1 53.8C34.4 57.8 25.9 56.6 18.8 57.8C11.6 59.1 5.8 62.8 0 66.5L0 0Z" fill="#94bcb1"></path></g></svg>