<svg id="visual" viewBox="0 0 1200 400" width="1200" height="400" xmlns="http://www.w3.org/2000/svg" xmlns:xlink="http://www.w3.org/1999/xlink" version="1.1"><rect x="0" y="0" width="1200" height="400" fill="#2d3047"></rect><path d="M0 22L28.5 33C57 44 114 66 171.2 70.3C228.3 74.7 285.7 61.3 342.8 58.5C400 55.7 457 63.3 514.2 80C571.3 96.7 628.7 122.3 685.8 123.5C743 124.7 800 101.3 857.2 81.8C914.3 62.3 971.7 46.7 1028.8 44.2C1086 41.7 1143 52.3 1171.5 57.7L1200 63L1200 0L1171.5 0C1143 0 1086 0 1028.8 0C971.7 0 914.3 0 857.2 0C800 0 743 0 685.8 0C628.7 0 571.3 0 514.2 0C457 0 400 0 342.8 0C285.7 0 228.3 0 171.2 0C114 0 57 0 28.5 0L0 0Z" fill="#efeeec" stroke-linecap="round" stroke-linejoin="miter"></path></svg>