<svg id="visual" viewBox="0 0 1200 300" width="1200" height="300" xmlns="http://www.w3.org/2000/svg" xmlns:xlink="http://www.w3.org/1999/xlink" version="1.1"><rect x="0" y="0" width="1200" height="300" fill="#2d3047"></rect><path d="M754 300L691 300L691 287L855 287L855 274L779 274L779 261L723 261L723 248L610 248L610 235L887 235L887 222L619 222L619 209L678 209L678 196L878 196L878 183L761 183L761 170L812 170L812 157L607 157L607 143L799 143L799 130L737 130L737 117L721 117L721 104L808 104L808 91L829 91L829 78L862 78L862 65L812 65L812 52L684 52L684 39L655 39L655 26L833 26L833 13L689 13L689 0L1200 0L1200 13L1200 13L1200 26L1200 26L1200 39L1200 39L1200 52L1200 52L1200 65L1200 65L1200 78L1200 78L1200 91L1200 91L1200 104L1200 104L1200 117L1200 117L1200 130L1200 130L1200 143L1200 143L1200 157L1200 157L1200 170L1200 170L1200 183L1200 183L1200 196L1200 196L1200 209L1200 209L1200 222L1200 222L1200 235L1200 235L1200 248L1200 248L1200 261L1200 261L1200 274L1200 274L1200 287L1200 287L1200 300L1200 300Z" fill="#334058"></path><path d="M996 300L832 300L832 287L895 287L895 274L729 274L729 261L894 261L894 248L810 248L810 235L724 235L724 222L843 222L843 209L853 209L853 196L986 196L986 183L814 183L814 170L995 170L995 157L923 157L923 143L838 143L838 130L954 130L954 117L840 117L840 104L871 104L871 91L882 91L882 78L827 78L827 65L993 65L993 52L878 52L878 39L922 39L922 26L901 26L901 13L796 13L796 0L1200 0L1200 13L1200 13L1200 26L1200 26L1200 39L1200 39L1200 52L1200 52L1200 65L1200 65L1200 78L1200 78L1200 91L1200 91L1200 104L1200 104L1200 117L1200 117L1200 130L1200 130L1200 143L1200 143L1200 157L1200 157L1200 170L1200 170L1200 183L1200 183L1200 196L1200 196L1200 209L1200 209L1200 222L1200 222L1200 235L1200 235L1200 248L1200 248L1200 261L1200 261L1200 274L1200 274L1200 287L1200 287L1200 300L1200 300Z" fill="#46687b"></path><path d="M949 300L871 300L871 287L1002 287L1002 274L999 274L999 261L1066 261L1066 248L1059 248L1059 235L1063 235L1063 222L981 222L981 209L1051 209L1051 196L933 196L933 183L1088 183L1088 170L1027 170L1027 157L1012 157L1012 143L1056 143L1056 130L1083 130L1083 117L933 117L933 104L998 104L998 91L1003 91L1003 78L1095 78L1095 65L1002 65L1002 52L1078 52L1078 39L1034 39L1034 26L978 26L978 13L1009 13L1009 0L1200 0L1200 13L1200 13L1200 26L1200 26L1200 39L1200 39L1200 52L1200 52L1200 65L1200 65L1200 78L1200 78L1200 91L1200 91L1200 104L1200 104L1200 117L1200 117L1200 130L1200 130L1200 143L1200 143L1200 157L1200 157L1200 170L1200 170L1200 183L1200 183L1200 196L1200 196L1200 209L1200 209L1200 222L1200 222L1200 235L1200 235L1200 248L1200 248L1200 261L1200 261L1200 274L1200 274L1200 287L1200 287L1200 300L1200 300Z" fill="#669298"></path><path d="M993 300L982 300L982 287L1090 287L1090 274L1046 274L1046 261L1079 261L1079 248L1053 248L1053 235L1169 235L1169 222L1133 222L1133 209L1179 209L1179 196L1162 196L1162 183L979 183L979 170L1163 170L1163 157L986 157L986 143L1137 143L1137 130L1006 130L1006 117L1017 117L1017 104L1004 104L1004 91L1135 91L1135 78L1146 78L1146 65L1119 65L1119 52L1089 52L1089 39L983 39L983 26L1183 26L1183 13L985 13L985 0L1200 0L1200 13L1200 13L1200 26L1200 26L1200 39L1200 39L1200 52L1200 52L1200 65L1200 65L1200 78L1200 78L1200 91L1200 91L1200 104L1200 104L1200 117L1200 117L1200 130L1200 130L1200 143L1200 143L1200 157L1200 157L1200 170L1200 170L1200 183L1200 183L1200 196L1200 196L1200 209L1200 209L1200 222L1200 222L1200 235L1200 235L1200 248L1200 248L1200 261L1200 261L1200 274L1200 274L1200 287L1200 287L1200 300L1200 300Z" fill="#94bcb1"></path></svg>