<svg id="visual" viewBox="0 0 960 540" width="960" height="540" xmlns="http://www.w3.org/2000/svg" xmlns:xlink="http://www.w3.org/1999/xlink" version="1.1"><rect x="0" y="0" width="960" height="540" fill="#2D3047"></rect><path d="M842 540L804 540L804 523L884 523L884 505L495 505L495 488L650 488L650 470L483 470L483 453L923 453L923 435L860 435L860 418L497 418L497 401L804 401L804 383L808 383L808 366L741 366L741 348L942 348L942 331L639 331L639 314L603 314L603 296L716 296L716 279L674 279L674 261L799 261L799 244L705 244L705 226L619 226L619 209L521 209L521 192L867 192L867 174L678 174L678 157L574 157L574 139L812 139L812 122L577 122L577 105L684 105L684 87L530 87L530 70L809 70L809 52L728 52L728 35L949 35L949 17L779 17L779 0L960 0L960 17L960 17L960 35L960 35L960 52L960 52L960 70L960 70L960 87L960 87L960 105L960 105L960 122L960 122L960 139L960 139L960 157L960 157L960 174L960 174L960 192L960 192L960 209L960 209L960 226L960 226L960 244L960 244L960 261L960 261L960 279L960 279L960 296L960 296L960 314L960 314L960 331L960 331L960 348L960 348L960 366L960 366L960 383L960 383L960 401L960 401L960 418L960 418L960 435L960 435L960 453L960 453L960 470L960 470L960 488L960 488L960 505L960 505L960 523L960 523L960 540L960 540Z" fill="#94bcb1" stroke-linecap="square" stroke-linejoin="miter"></path></svg>