<svg id="visual" viewBox="0 0 1200 600" width="1200" height="600" xmlns="http://www.w3.org/2000/svg" xmlns:xlink="http://www.w3.org/1999/xlink" version="1.1"><rect x="0" y="0" width="1200" height="600" fill="#2d3047"></rect><path d="M754 600L691 600L691 574L855 574L855 548L779 548L779 522L723 522L723 496L610 496L610 470L887 470L887 443L619 443L619 417L678 417L678 391L878 391L878 365L761 365L761 339L812 339L812 313L607 313L607 287L799 287L799 261L737 261L737 235L721 235L721 209L808 209L808 183L829 183L829 157L862 157L862 130L812 130L812 104L684 104L684 78L655 78L655 52L833 52L833 26L689 26L689 0L1200 0L1200 26L1200 26L1200 52L1200 52L1200 78L1200 78L1200 104L1200 104L1200 130L1200 130L1200 157L1200 157L1200 183L1200 183L1200 209L1200 209L1200 235L1200 235L1200 261L1200 261L1200 287L1200 287L1200 313L1200 313L1200 339L1200 339L1200 365L1200 365L1200 391L1200 391L1200 417L1200 417L1200 443L1200 443L1200 470L1200 470L1200 496L1200 496L1200 522L1200 522L1200 548L1200 548L1200 574L1200 574L1200 600L1200 600Z" fill="#334058"></path><path d="M996 600L832 600L832 574L895 574L895 548L729 548L729 522L894 522L894 496L810 496L810 470L724 470L724 443L843 443L843 417L853 417L853 391L986 391L986 365L814 365L814 339L995 339L995 313L923 313L923 287L838 287L838 261L954 261L954 235L840 235L840 209L871 209L871 183L882 183L882 157L827 157L827 130L993 130L993 104L878 104L878 78L922 78L922 52L901 52L901 26L796 26L796 0L1200 0L1200 26L1200 26L1200 52L1200 52L1200 78L1200 78L1200 104L1200 104L1200 130L1200 130L1200 157L1200 157L1200 183L1200 183L1200 209L1200 209L1200 235L1200 235L1200 261L1200 261L1200 287L1200 287L1200 313L1200 313L1200 339L1200 339L1200 365L1200 365L1200 391L1200 391L1200 417L1200 417L1200 443L1200 443L1200 470L1200 470L1200 496L1200 496L1200 522L1200 522L1200 548L1200 548L1200 574L1200 574L1200 600L1200 600Z" fill="#46687b"></path><path d="M949 600L871 600L871 574L1002 574L1002 548L999 548L999 522L1066 522L1066 496L1059 496L1059 470L1063 470L1063 443L981 443L981 417L1051 417L1051 391L933 391L933 365L1088 365L1088 339L1027 339L1027 313L1012 313L1012 287L1056 287L1056 261L1083 261L1083 235L933 235L933 209L998 209L998 183L1003 183L1003 157L1095 157L1095 130L1002 130L1002 104L1078 104L1078 78L1034 78L1034 52L978 52L978 26L1009 26L1009 0L1200 0L1200 26L1200 26L1200 52L1200 52L1200 78L1200 78L1200 104L1200 104L1200 130L1200 130L1200 157L1200 157L1200 183L1200 183L1200 209L1200 209L1200 235L1200 235L1200 261L1200 261L1200 287L1200 287L1200 313L1200 313L1200 339L1200 339L1200 365L1200 365L1200 391L1200 391L1200 417L1200 417L1200 443L1200 443L1200 470L1200 470L1200 496L1200 496L1200 522L1200 522L1200 548L1200 548L1200 574L1200 574L1200 600L1200 600Z" fill="#669298"></path><path d="M993 600L982 600L982 574L1090 574L1090 548L1046 548L1046 522L1079 522L1079 496L1053 496L1053 470L1169 470L1169 443L1133 443L1133 417L1179 417L1179 391L1162 391L1162 365L979 365L979 339L1163 339L1163 313L986 313L986 287L1137 287L1137 261L1006 261L1006 235L1017 235L1017 209L1004 209L1004 183L1135 183L1135 157L1146 157L1146 130L1119 130L1119 104L1089 104L1089 78L983 78L983 52L1183 52L1183 26L985 26L985 0L1200 0L1200 26L1200 26L1200 52L1200 52L1200 78L1200 78L1200 104L1200 104L1200 130L1200 130L1200 157L1200 157L1200 183L1200 183L1200 209L1200 209L1200 235L1200 235L1200 261L1200 261L1200 287L1200 287L1200 313L1200 313L1200 339L1200 339L1200 365L1200 365L1200 391L1200 391L1200 417L1200 417L1200 443L1200 443L1200 470L1200 470L1200 496L1200 496L1200 522L1200 522L1200 548L1200 548L1200 574L1200 574L1200 600L1200 600Z" fill="#94bcb1"></path></svg>