<svg id="visual" viewBox="0 0 1600 350" width="1600" height="350" xmlns="http://www.w3.org/2000/svg" xmlns:xlink="http://www.w3.org/1999/xlink" version="1.1"><rect x="0" y="0" width="1600" height="350" fill="#2D3047"></rect><path d="M1482 350L1444 350L1444 339L1524 339L1524 327L1135 327L1135 316L1290 316L1290 305L1123 305L1123 294L1563 294L1563 282L1500 282L1500 271L1137 271L1137 260L1444 260L1444 248L1448 248L1448 237L1381 237L1381 226L1582 226L1582 215L1279 215L1279 203L1243 203L1243 192L1356 192L1356 181L1314 181L1314 169L1439 169L1439 158L1345 158L1345 147L1259 147L1259 135L1161 135L1161 124L1507 124L1507 113L1318 113L1318 102L1214 102L1214 90L1452 90L1452 79L1217 79L1217 68L1324 68L1324 56L1170 56L1170 45L1449 45L1449 34L1368 34L1368 23L1589 23L1589 11L1419 11L1419 0L1600 0L1600 11L1600 11L1600 23L1600 23L1600 34L1600 34L1600 45L1600 45L1600 56L1600 56L1600 68L1600 68L1600 79L1600 79L1600 90L1600 90L1600 102L1600 102L1600 113L1600 113L1600 124L1600 124L1600 135L1600 135L1600 147L1600 147L1600 158L1600 158L1600 169L1600 169L1600 181L1600 181L1600 192L1600 192L1600 203L1600 203L1600 215L1600 215L1600 226L1600 226L1600 237L1600 237L1600 248L1600 248L1600 260L1600 260L1600 271L1600 271L1600 282L1600 282L1600 294L1600 294L1600 305L1600 305L1600 316L1600 316L1600 327L1600 327L1600 339L1600 339L1600 350L1600 350Z" fill="#94bcb1" stroke-linecap="square" stroke-linejoin="miter"></path></svg>