<svg id="visual" viewBox="0 0 1800 300" width="1800" height="300" xmlns="http://www.w3.org/2000/svg" xmlns:xlink="http://www.w3.org/1999/xlink" version="1.1"><rect x="0" y="0" width="1800" height="300" fill="#2D3047"></rect><path d="M0 122L33.3 122.2C66.7 122.3 133.3 122.7 200 109.3C266.7 96 333.3 69 400 68.5C466.7 68 533.3 94 600 92.5C666.7 91 733.3 62 800 43.5C866.7 25 933.3 17 1000 21.8C1066.7 26.7 1133.3 44.3 1200 60.7C1266.7 77 1333.3 92 1400 98.5C1466.7 105 1533.3 103 1600 91C1666.7 79 1733.3 57 1766.7 46L1800 35L1800 0L1766.7 0C1733.3 0 1666.7 0 1600 0C1533.3 0 1466.7 0 1400 0C1333.3 0 1266.7 0 1200 0C1133.3 0 1066.7 0 1000 0C933.3 0 866.7 0 800 0C733.3 0 666.7 0 600 0C533.3 0 466.7 0 400 0C333.3 0 266.7 0 200 0C133.3 0 66.7 0 33.3 0L0 0Z" fill="#94bcb1" stroke-linecap="round" stroke-linejoin="miter"></path></svg>