<svg id="visual" viewBox="0 0 1200 300" width="1200" height="300" xmlns="http://www.w3.org/2000/svg" xmlns:xlink="http://www.w3.org/1999/xlink" version="1.1"><rect x="0" y="0" width="1200" height="300" fill="#2d3047"></rect><path d="M0 176L171 172L343 169L514 177L686 145L857 138L1029 120L1200 146L1200 0L1029 0L857 0L686 0L514 0L343 0L171 0L0 0Z" fill="#2d3047"></path><path d="M0 102L171 130L343 152L514 111L686 106L857 131L1029 97L1200 132L1200 0L1029 0L857 0L686 0L514 0L343 0L171 0L0 0Z" fill="#3a5267"></path><path d="M0 101L171 128L343 105L514 108L686 84L857 96L1029 117L1200 101L1200 0L1029 0L857 0L686 0L514 0L343 0L171 0L0 0Z" fill="#4e7583"></path><path d="M0 87L171 58L343 46L514 58L686 77L857 50L1029 90L1200 74L1200 0L1029 0L857 0L686 0L514 0L343 0L171 0L0 0Z" fill="#6c999b"></path><path d="M0 53L171 45L343 47L514 57L686 33L857 58L1029 35L1200 26L1200 0L1029 0L857 0L686 0L514 0L343 0L171 0L0 0Z" fill="#94bcb1"></path></svg>