<svg id="visual" viewBox="0 0 1200 600" width="1200" height="600" xmlns="http://www.w3.org/2000/svg" xmlns:xlink="http://www.w3.org/1999/xlink" version="1.1"><rect x="0" y="0" width="1200" height="600" fill="#2d3047"></rect><path d="M0 353L171 344L343 338L514 356L686 291L857 276L1029 241L1200 292L1200 0L1029 0L857 0L686 0L514 0L343 0L171 0L0 0Z" fill="#2d3047"></path><path d="M0 205L171 260L343 305L514 223L686 213L857 264L1029 195L1200 266L1200 0L1029 0L857 0L686 0L514 0L343 0L171 0L0 0Z" fill="#3a5267"></path><path d="M0 204L171 257L343 212L514 217L686 168L857 192L1029 236L1200 202L1200 0L1029 0L857 0L686 0L514 0L343 0L171 0L0 0Z" fill="#4e7583"></path><path d="M0 174L171 117L343 93L514 116L686 155L857 101L1029 182L1200 150L1200 0L1029 0L857 0L686 0L514 0L343 0L171 0L0 0Z" fill="#6c999b"></path><path d="M0 106L171 90L343 94L514 115L686 67L857 117L1029 71L1200 52L1200 0L1029 0L857 0L686 0L514 0L343 0L171 0L0 0Z" fill="#94bcb1"></path></svg>